<mxfile host="app.diagrams.net" agent="Mozilla/5.0 (X11; Linux x86_64) AppleWebKit/537.36 (KHTML, like Gecko) Chrome/132.0.0.0 Safari/537.36" version="26.0.7">
  <diagram name="第 1 页" id="xj4az8rMtTg3b-KRMfOO">
    <mxGraphModel dx="819" dy="469" grid="1" gridSize="10" guides="1" tooltips="1" connect="1" arrows="1" fold="1" page="1" pageScale="1" pageWidth="827" pageHeight="1169" math="0" shadow="0">
      <root>
        <mxCell id="0" />
        <mxCell id="1" parent="0" />
        <mxCell id="9YBVQH54t0jLCTENVG2o-14" value="" style="rounded=0;whiteSpace=wrap;html=1;dashed=1;fillColor=none;fontFamily=Times New Roman;" vertex="1" parent="1">
          <mxGeometry x="380" y="270" width="110" height="170" as="geometry" />
        </mxCell>
        <mxCell id="9YBVQH54t0jLCTENVG2o-7" value="" style="rounded=0;whiteSpace=wrap;html=1;dashed=1;fillColor=none;fontFamily=Times New Roman;" vertex="1" parent="1">
          <mxGeometry x="230" y="270" width="100" height="170" as="geometry" />
        </mxCell>
        <mxCell id="9YBVQH54t0jLCTENVG2o-4" style="edgeStyle=orthogonalEdgeStyle;rounded=0;orthogonalLoop=1;jettySize=auto;html=1;exitX=0.5;exitY=1;exitDx=0;exitDy=0;entryX=0.5;entryY=0;entryDx=0;entryDy=0;fontFamily=Times New Roman;" edge="1" parent="1" source="9YBVQH54t0jLCTENVG2o-1" target="9YBVQH54t0jLCTENVG2o-3">
          <mxGeometry relative="1" as="geometry" />
        </mxCell>
        <mxCell id="9YBVQH54t0jLCTENVG2o-1" value="解码手势" style="rounded=0;whiteSpace=wrap;html=1;fontFamily=Times New Roman;" vertex="1" parent="1">
          <mxGeometry x="240" y="280" width="80" height="30" as="geometry" />
        </mxCell>
        <mxCell id="9YBVQH54t0jLCTENVG2o-6" style="edgeStyle=orthogonalEdgeStyle;rounded=0;orthogonalLoop=1;jettySize=auto;html=1;exitX=0.5;exitY=1;exitDx=0;exitDy=0;entryX=0.5;entryY=0;entryDx=0;entryDy=0;fontFamily=Times New Roman;" edge="1" parent="1" source="9YBVQH54t0jLCTENVG2o-3" target="9YBVQH54t0jLCTENVG2o-5">
          <mxGeometry relative="1" as="geometry" />
        </mxCell>
        <mxCell id="9YBVQH54t0jLCTENVG2o-3" value="扫描按键" style="rounded=0;whiteSpace=wrap;html=1;fontFamily=Times New Roman;" vertex="1" parent="1">
          <mxGeometry x="240" y="330" width="80" height="30" as="geometry" />
        </mxCell>
        <mxCell id="9YBVQH54t0jLCTENVG2o-16" style="edgeStyle=orthogonalEdgeStyle;rounded=0;orthogonalLoop=1;jettySize=auto;html=1;exitX=1;exitY=0.5;exitDx=0;exitDy=0;entryX=0;entryY=0.5;entryDx=0;entryDy=0;fontFamily=Times New Roman;" edge="1" parent="1" source="9YBVQH54t0jLCTENVG2o-5" target="9YBVQH54t0jLCTENVG2o-13">
          <mxGeometry relative="1" as="geometry" />
        </mxCell>
        <mxCell id="9YBVQH54t0jLCTENVG2o-19" value="I&lt;sup&gt;2&lt;/sup&gt;C" style="edgeLabel;html=1;align=center;verticalAlign=middle;resizable=0;points=[];fontFamily=Times New Roman;" vertex="1" connectable="0" parent="9YBVQH54t0jLCTENVG2o-16">
          <mxGeometry x="-0.1245" relative="1" as="geometry">
            <mxPoint y="-11" as="offset" />
          </mxGeometry>
        </mxCell>
        <mxCell id="9YBVQH54t0jLCTENVG2o-5" value="保存信息至EZI&lt;sup&gt;2&lt;/sup&gt;C寄存器" style="rounded=0;whiteSpace=wrap;html=1;fontFamily=Times New Roman;" vertex="1" parent="1">
          <mxGeometry x="240" y="380" width="80" height="50" as="geometry" />
        </mxCell>
        <mxCell id="9YBVQH54t0jLCTENVG2o-8" value="&lt;font style=&quot;font-size: 10px;&quot;&gt;MCU CY8C414AZI-S475&lt;/font&gt;" style="text;html=1;align=center;verticalAlign=middle;whiteSpace=wrap;rounded=0;fontFamily=Times New Roman;" vertex="1" parent="1">
          <mxGeometry x="220" y="250" width="120" height="20" as="geometry" />
        </mxCell>
        <mxCell id="9YBVQH54t0jLCTENVG2o-21" style="edgeStyle=orthogonalEdgeStyle;rounded=0;orthogonalLoop=1;jettySize=auto;html=1;exitX=0.5;exitY=1;exitDx=0;exitDy=0;entryX=0.5;entryY=0;entryDx=0;entryDy=0;fontFamily=Times New Roman;" edge="1" parent="1" source="9YBVQH54t0jLCTENVG2o-10" target="9YBVQH54t0jLCTENVG2o-12">
          <mxGeometry relative="1" as="geometry" />
        </mxCell>
        <mxCell id="9YBVQH54t0jLCTENVG2o-10" value="解码具体手&lt;div&gt;势或按键&lt;/div&gt;" style="rounded=0;whiteSpace=wrap;html=1;fontFamily=Times New Roman;" vertex="1" parent="1">
          <mxGeometry x="390" y="330" width="90" height="40" as="geometry" />
        </mxCell>
        <mxCell id="9YBVQH54t0jLCTENVG2o-12" value="HID设备&lt;div&gt;发送报告&lt;/div&gt;" style="rounded=0;whiteSpace=wrap;html=1;fontFamily=Times New Roman;" vertex="1" parent="1">
          <mxGeometry x="390" y="390" width="90" height="40" as="geometry" />
        </mxCell>
        <mxCell id="9YBVQH54t0jLCTENVG2o-20" style="edgeStyle=orthogonalEdgeStyle;rounded=0;orthogonalLoop=1;jettySize=auto;html=1;exitX=0.5;exitY=1;exitDx=0;exitDy=0;entryX=0.5;entryY=0;entryDx=0;entryDy=0;fontFamily=Times New Roman;" edge="1" parent="1" source="9YBVQH54t0jLCTENVG2o-13" target="9YBVQH54t0jLCTENVG2o-10">
          <mxGeometry relative="1" as="geometry" />
        </mxCell>
        <mxCell id="9YBVQH54t0jLCTENVG2o-13" value="读I&lt;sup&gt;2&lt;/sup&gt;C寄存器" style="rounded=0;whiteSpace=wrap;html=1;fontFamily=Times New Roman;" vertex="1" parent="1">
          <mxGeometry x="390" y="280" width="90" height="30" as="geometry" />
        </mxCell>
        <mxCell id="9YBVQH54t0jLCTENVG2o-15" value="&lt;font style=&quot;font-size: 10px;&quot;&gt;蓝牙模组CYBLE-022001-00&lt;/font&gt;" style="text;html=1;align=center;verticalAlign=middle;whiteSpace=wrap;rounded=0;fontFamily=Times New Roman;" vertex="1" parent="1">
          <mxGeometry x="370" y="250" width="130" height="20" as="geometry" />
        </mxCell>
      </root>
    </mxGraphModel>
  </diagram>
</mxfile>
